<svg xmlns="http://www.w3.org/2000/svg" viewBox="0 0 311.265 311.265">
	<g>
		<path d="M151.379,82.354c0.487,0.015,0.977,0.022,1.464,0.022c0.001,0,0.001,0,0.002,0c17.285,0,36.041-9.745,47.777-24.823
		C212.736,42.011,218.24,23.367,215.723,6.4c-0.575-3.875-4.047-6.662-7.943-6.381c-17.035,1.193-36.32,11.551-47.987,25.772
		c-12.694,15.459-18.51,34.307-15.557,50.418C144.873,79.684,147.848,82.243,151.379,82.354z" fill="white"></path>
		<path d="M282.608,226.332c-0.794-1.91-2.343-3.407-4.279-4.137c-30.887-11.646-40.56-45.12-31.807-69.461
		c4.327-12.073,12.84-21.885,24.618-28.375c1.938-1.068,3.306-2.938,3.737-5.109c0.431-2.171-0.12-4.422-1.503-6.149
		c-15.654-19.536-37.906-31.199-59.525-31.199c-15.136,0-25.382,3.886-34.422,7.314c-6.659,2.525-12.409,4.706-19.001,4.706
		c-7.292,0-13.942-2.382-21.644-5.141c-9.003-3.225-19.206-6.88-31.958-6.88c-24.577,0-49.485,14.863-65.013,38.803
		c-5.746,8.905-9.775,19.905-11.98,32.708c-6.203,36.422,4.307,79.822,28.118,116.101c13.503,20.53,30.519,41.546,54.327,41.749
		l0.486,0.002c9.917,0,16.589-2.98,23.041-5.862c6.818-3.045,13.258-5.922,24.923-5.98l0.384-0.001
		c11.445,0,17.681,2.861,24.283,5.89c6.325,2.902,12.866,5.903,22.757,5.903l0.453-0.003c23.332-0.198,41.002-22.305,55.225-43.925
		c8.742-13.391,12.071-20.235,18.699-35.003C283.373,230.396,283.402,228.242,282.608,226.332z" fill="white"></path>
	</g>
</svg>